<mxfile host="app.diagrams.net" modified="2023-11-28T04:55:04.735Z" agent="Mozilla/5.0 (Windows NT 10.0; Win64; x64) AppleWebKit/537.36 (KHTML, like Gecko) Chrome/118.0.0.0 Safari/537.36 OPR/104.0.0.0" etag="I2Dymscwm6ix1ck9gV8o" version="22.1.4" type="github">
  <diagram name="Página-1" id="HQ2seOIjVY3zAPGUkfLc">
    <mxGraphModel dx="1226" dy="646" grid="1" gridSize="10" guides="1" tooltips="1" connect="1" arrows="1" fold="1" page="1" pageScale="1" pageWidth="1169" pageHeight="827" math="0" shadow="0">
      <root>
        <mxCell id="0" />
        <mxCell id="1" parent="0" />
        <mxCell id="i-NVnTE6BoDaobyKy-87-19" value="" style="endArrow=none;html=1;rounded=0;exitX=0;exitY=0.25;exitDx=0;exitDy=0;entryX=1;entryY=0;entryDx=0;entryDy=0;" parent="1" source="i-NVnTE6BoDaobyKy-87-15" target="i-NVnTE6BoDaobyKy-87-10" edge="1">
          <mxGeometry width="50" height="50" relative="1" as="geometry">
            <mxPoint x="740" y="420" as="sourcePoint" />
            <mxPoint x="700" y="432" as="targetPoint" />
          </mxGeometry>
        </mxCell>
        <mxCell id="i-NVnTE6BoDaobyKy-87-1" value="INICIO" style="ellipse;whiteSpace=wrap;html=1;aspect=fixed;" parent="1" vertex="1">
          <mxGeometry x="360" y="20" width="80" height="80" as="geometry" />
        </mxCell>
        <mxCell id="i-NVnTE6BoDaobyKy-87-2" value="" style="swimlane;startSize=0;" parent="1" vertex="1">
          <mxGeometry x="330" y="140" width="140" height="70" as="geometry" />
        </mxCell>
        <mxCell id="i-NVnTE6BoDaobyKy-87-3" value="&lt;font style=&quot;font-size: 24px;&quot;&gt;login&lt;/font&gt;" style="text;html=1;align=center;verticalAlign=middle;resizable=0;points=[];autosize=1;strokeColor=none;fillColor=none;strokeWidth=7;" parent="i-NVnTE6BoDaobyKy-87-2" vertex="1">
          <mxGeometry x="35" y="25" width="70" height="40" as="geometry" />
        </mxCell>
        <mxCell id="i-NVnTE6BoDaobyKy-87-4" value="usuarios" style="rounded=1;whiteSpace=wrap;html=1;" parent="1" vertex="1">
          <mxGeometry x="510" y="230" width="120" height="60" as="geometry" />
        </mxCell>
        <mxCell id="i-NVnTE6BoDaobyKy-87-5" value="administrador" style="rounded=1;whiteSpace=wrap;html=1;" parent="1" vertex="1">
          <mxGeometry x="55" y="230" width="120" height="60" as="geometry" />
        </mxCell>
        <mxCell id="i-NVnTE6BoDaobyKy-87-7" value="" style="endArrow=none;html=1;rounded=0;exitX=0.5;exitY=0;exitDx=0;exitDy=0;" parent="1" source="i-NVnTE6BoDaobyKy-87-2" edge="1">
          <mxGeometry width="50" height="50" relative="1" as="geometry">
            <mxPoint x="350" y="150" as="sourcePoint" />
            <mxPoint x="400" y="100" as="targetPoint" />
          </mxGeometry>
        </mxCell>
        <mxCell id="i-NVnTE6BoDaobyKy-87-8" value="" style="endArrow=none;html=1;rounded=0;exitX=0.5;exitY=0;exitDx=0;exitDy=0;entryX=0;entryY=1;entryDx=0;entryDy=0;" parent="1" source="i-NVnTE6BoDaobyKy-87-5" target="i-NVnTE6BoDaobyKy-87-2" edge="1">
          <mxGeometry width="50" height="50" relative="1" as="geometry">
            <mxPoint x="280" y="280" as="sourcePoint" />
            <mxPoint x="330" y="230" as="targetPoint" />
          </mxGeometry>
        </mxCell>
        <mxCell id="i-NVnTE6BoDaobyKy-87-9" value="" style="endArrow=none;html=1;rounded=0;entryX=1;entryY=1;entryDx=0;entryDy=0;exitX=0.431;exitY=0.029;exitDx=0;exitDy=0;exitPerimeter=0;" parent="1" source="i-NVnTE6BoDaobyKy-87-4" target="i-NVnTE6BoDaobyKy-87-2" edge="1">
          <mxGeometry width="50" height="50" relative="1" as="geometry">
            <mxPoint x="290" y="290" as="sourcePoint" />
            <mxPoint x="340" y="240" as="targetPoint" />
            <Array as="points" />
          </mxGeometry>
        </mxCell>
        <mxCell id="i-NVnTE6BoDaobyKy-87-10" value="informacion del cliente completo&lt;br&gt;nombre apellido - dni - mail&lt;br&gt;saldo - monto&lt;br&gt;movimientos (transferencias)&lt;br&gt;realizar transferencia (boton)&lt;br&gt;plazo fijo (boton)" style="rounded=0;whiteSpace=wrap;html=1;" parent="1" vertex="1">
          <mxGeometry x="465" y="340" width="210" height="150" as="geometry" />
        </mxCell>
        <mxCell id="i-NVnTE6BoDaobyKy-87-11" value="realizar trasnferencia" style="rounded=1;whiteSpace=wrap;html=1;" parent="1" vertex="1">
          <mxGeometry x="740" y="320" width="140" height="60" as="geometry" />
        </mxCell>
        <mxCell id="i-NVnTE6BoDaobyKy-87-12" value="CARGAR DATOS&lt;br&gt;&lt;br&gt;usuario&lt;br&gt;monto a transferir&lt;br&gt;fecha&amp;nbsp;&lt;br&gt;descripcion&lt;br&gt;" style="whiteSpace=wrap;html=1;aspect=fixed;" parent="1" vertex="1">
          <mxGeometry x="735" y="413.5" width="150" height="150" as="geometry" />
        </mxCell>
        <mxCell id="i-NVnTE6BoDaobyKy-87-13" style="edgeStyle=orthogonalEdgeStyle;rounded=0;orthogonalLoop=1;jettySize=auto;html=1;exitX=0.5;exitY=1;exitDx=0;exitDy=0;" parent="1" source="i-NVnTE6BoDaobyKy-87-10" target="i-NVnTE6BoDaobyKy-87-10" edge="1">
          <mxGeometry relative="1" as="geometry" />
        </mxCell>
        <mxCell id="i-NVnTE6BoDaobyKy-87-15" value="plazo fijjo&lt;br&gt;Opcional" style="rounded=1;whiteSpace=wrap;html=1;" parent="1" vertex="1">
          <mxGeometry x="920" y="320" width="140" height="60" as="geometry" />
        </mxCell>
        <mxCell id="i-NVnTE6BoDaobyKy-87-16" value="CARGAR DATOS&lt;br&gt;&lt;br&gt;monto a realizar&lt;br&gt;cantidad de meses&lt;br&gt;agregar % al monto" style="whiteSpace=wrap;html=1;aspect=fixed;" parent="1" vertex="1">
          <mxGeometry x="920" y="414" width="150" height="150" as="geometry" />
        </mxCell>
        <mxCell id="i-NVnTE6BoDaobyKy-87-17" value="" style="endArrow=none;html=1;rounded=0;entryX=0.5;entryY=1;entryDx=0;entryDy=0;exitX=0.5;exitY=0;exitDx=0;exitDy=0;" parent="1" source="i-NVnTE6BoDaobyKy-87-10" target="i-NVnTE6BoDaobyKy-87-4" edge="1">
          <mxGeometry width="50" height="50" relative="1" as="geometry">
            <mxPoint x="540" y="390" as="sourcePoint" />
            <mxPoint x="590" y="340" as="targetPoint" />
          </mxGeometry>
        </mxCell>
        <mxCell id="i-NVnTE6BoDaobyKy-87-18" value="" style="endArrow=none;html=1;rounded=0;exitX=0;exitY=0.5;exitDx=0;exitDy=0;" parent="1" source="i-NVnTE6BoDaobyKy-87-11" target="i-NVnTE6BoDaobyKy-87-10" edge="1">
          <mxGeometry width="50" height="50" relative="1" as="geometry">
            <mxPoint x="740" y="430" as="sourcePoint" />
            <mxPoint x="695" y="390" as="targetPoint" />
          </mxGeometry>
        </mxCell>
        <mxCell id="i-NVnTE6BoDaobyKy-87-20" value="Paginas" style="rounded=1;whiteSpace=wrap;html=1;" parent="1" vertex="1">
          <mxGeometry x="750" y="270" width="300" height="20" as="geometry" />
        </mxCell>
        <mxCell id="i-NVnTE6BoDaobyKy-87-21" value="informacion de todos los clientes&lt;br&gt;movimientos de cuentas (boton)&lt;br&gt;&amp;nbsp;editar cuentas (boton)&lt;br&gt;mostrar saldo&lt;br&gt;agregar saldo (boton)&lt;br&gt;&lt;br&gt;botones aparte&lt;br&gt;agregar clientes (boton)&lt;br&gt;borrar clientes (boton)" style="rounded=0;whiteSpace=wrap;html=1;" parent="1" vertex="1">
          <mxGeometry x="10" y="320" width="210" height="150" as="geometry" />
        </mxCell>
        <mxCell id="i-NVnTE6BoDaobyKy-87-23" value="ESPECIFICACIONES&amp;nbsp;&lt;br&gt;&lt;br&gt;en montos cuando se realiza la transferencia se descuente el monto&lt;br&gt;crear alerta de exceso de monto y de poco monto&lt;br&gt;desde la api hacer validaciones&amp;nbsp;&lt;br&gt;hacer la peticiones&amp;nbsp;&lt;br&gt;" style="rounded=0;whiteSpace=wrap;html=1;align=center;" parent="1" vertex="1">
          <mxGeometry x="520" width="640" height="150" as="geometry" />
        </mxCell>
        <mxCell id="i-NVnTE6BoDaobyKy-87-24" value="movientos de cuentas" style="rounded=1;whiteSpace=wrap;html=1;" parent="1" vertex="1">
          <mxGeometry y="520" width="120" height="40" as="geometry" />
        </mxCell>
        <mxCell id="i-NVnTE6BoDaobyKy-87-25" value="agregar clientes-cuentas" style="rounded=1;whiteSpace=wrap;html=1;" parent="1" vertex="1">
          <mxGeometry x="140" y="520" width="130" height="40" as="geometry" />
        </mxCell>
        <mxCell id="i-NVnTE6BoDaobyKy-87-26" value="editar cuentas" style="rounded=1;whiteSpace=wrap;html=1;" parent="1" vertex="1">
          <mxGeometry x="270" y="320" width="140" height="30" as="geometry" />
        </mxCell>
        <mxCell id="i-NVnTE6BoDaobyKy-87-28" value="Editar cuentas&lt;br&gt;editar monto&lt;br&gt;usarios - contraseña&amp;nbsp;" style="whiteSpace=wrap;html=1;aspect=fixed;" parent="1" vertex="1">
          <mxGeometry x="290" y="365" width="100" height="100" as="geometry" />
        </mxCell>
        <mxCell id="i-NVnTE6BoDaobyKy-87-29" style="edgeStyle=orthogonalEdgeStyle;rounded=0;orthogonalLoop=1;jettySize=auto;html=1;exitX=0.5;exitY=1;exitDx=0;exitDy=0;" parent="1" source="i-NVnTE6BoDaobyKy-87-2" target="i-NVnTE6BoDaobyKy-87-2" edge="1">
          <mxGeometry relative="1" as="geometry" />
        </mxCell>
        <mxCell id="i-NVnTE6BoDaobyKy-87-30" value="historial de cuentas" style="whiteSpace=wrap;html=1;aspect=fixed;" parent="1" vertex="1">
          <mxGeometry x="10" y="580" width="100" height="100" as="geometry" />
        </mxCell>
        <mxCell id="i-NVnTE6BoDaobyKy-87-31" value="cargar datos personales&amp;nbsp;" style="whiteSpace=wrap;html=1;aspect=fixed;" parent="1" vertex="1">
          <mxGeometry x="150" y="580" width="100" height="100" as="geometry" />
        </mxCell>
        <mxCell id="i-NVnTE6BoDaobyKy-87-32" value="agregar una descripción de agregar clientes contactar con admin" style="rounded=0;whiteSpace=wrap;html=1;" parent="1" vertex="1">
          <mxGeometry x="190" y="235" width="140" height="50" as="geometry" />
        </mxCell>
        <mxCell id="i-NVnTE6BoDaobyKy-87-33" value="agregar saldo" style="rounded=1;whiteSpace=wrap;html=1;" parent="1" vertex="1">
          <mxGeometry x="290" y="520" width="130" height="40" as="geometry" />
        </mxCell>
        <mxCell id="i-NVnTE6BoDaobyKy-87-34" value="selecionar saldo acutal&amp;nbsp;&lt;br&gt;saldo a seleccionar&amp;nbsp;&lt;br&gt;&amp;nbsp;" style="whiteSpace=wrap;html=1;aspect=fixed;" parent="1" vertex="1">
          <mxGeometry x="290" y="580" width="100" height="100" as="geometry" />
        </mxCell>
        <mxCell id="i-NVnTE6BoDaobyKy-87-35" value="" style="endArrow=none;html=1;rounded=0;entryX=0.5;entryY=1;entryDx=0;entryDy=0;exitX=0.5;exitY=0;exitDx=0;exitDy=0;" parent="1" source="i-NVnTE6BoDaobyKy-87-21" target="i-NVnTE6BoDaobyKy-87-5" edge="1">
          <mxGeometry width="50" height="50" relative="1" as="geometry">
            <mxPoint x="70" y="340" as="sourcePoint" />
            <mxPoint x="120" y="290" as="targetPoint" />
          </mxGeometry>
        </mxCell>
        <mxCell id="i-NVnTE6BoDaobyKy-87-36" value="" style="endArrow=none;html=1;rounded=0;entryX=0;entryY=0.5;entryDx=0;entryDy=0;exitX=1;exitY=0.25;exitDx=0;exitDy=0;" parent="1" source="i-NVnTE6BoDaobyKy-87-21" target="i-NVnTE6BoDaobyKy-87-26" edge="1">
          <mxGeometry width="50" height="50" relative="1" as="geometry">
            <mxPoint x="125" y="330" as="sourcePoint" />
            <mxPoint x="125" y="300" as="targetPoint" />
          </mxGeometry>
        </mxCell>
        <mxCell id="i-NVnTE6BoDaobyKy-87-37" value="" style="endArrow=none;html=1;rounded=0;entryX=0.5;entryY=1;entryDx=0;entryDy=0;exitX=0.5;exitY=0;exitDx=0;exitDy=0;" parent="1" source="i-NVnTE6BoDaobyKy-87-24" target="i-NVnTE6BoDaobyKy-87-21" edge="1">
          <mxGeometry width="50" height="50" relative="1" as="geometry">
            <mxPoint x="135" y="340" as="sourcePoint" />
            <mxPoint x="135" y="310" as="targetPoint" />
          </mxGeometry>
        </mxCell>
        <mxCell id="i-NVnTE6BoDaobyKy-87-38" value="" style="endArrow=none;html=1;rounded=0;entryX=0.5;entryY=1;entryDx=0;entryDy=0;exitX=0.5;exitY=0;exitDx=0;exitDy=0;" parent="1" source="i-NVnTE6BoDaobyKy-87-25" target="i-NVnTE6BoDaobyKy-87-21" edge="1">
          <mxGeometry width="50" height="50" relative="1" as="geometry">
            <mxPoint x="70" y="530" as="sourcePoint" />
            <mxPoint x="125" y="480" as="targetPoint" />
          </mxGeometry>
        </mxCell>
        <mxCell id="i-NVnTE6BoDaobyKy-87-39" value="" style="endArrow=none;html=1;rounded=0;entryX=1;entryY=1;entryDx=0;entryDy=0;exitX=0.5;exitY=0;exitDx=0;exitDy=0;" parent="1" source="i-NVnTE6BoDaobyKy-87-33" target="i-NVnTE6BoDaobyKy-87-21" edge="1">
          <mxGeometry width="50" height="50" relative="1" as="geometry">
            <mxPoint x="80" y="540" as="sourcePoint" />
            <mxPoint x="135" y="490" as="targetPoint" />
          </mxGeometry>
        </mxCell>
        <mxCell id="QaTXq2u6zS-n5LZm85QT-1" value="Tareas Realizadas&lt;br&gt;mejorar la base de datos&lt;br&gt;admin&lt;br&gt;" style="rounded=0;whiteSpace=wrap;html=1;align=center;" vertex="1" parent="1">
          <mxGeometry x="25" y="770" width="280" height="150" as="geometry" />
        </mxCell>
        <mxCell id="QaTXq2u6zS-n5LZm85QT-2" value="Tareas Pendientes&lt;br&gt;descontar desde saldo&lt;br&gt;login&lt;br&gt;transferencia desde admin y clientes&lt;br&gt;agregar clientes&amp;nbsp;&lt;br&gt;eliminar cuentas&lt;br&gt;pagina de clientes&lt;br&gt;plazo fijo" style="rounded=0;whiteSpace=wrap;html=1;align=center;" vertex="1" parent="1">
          <mxGeometry x="350" y="760" width="280" height="150" as="geometry" />
        </mxCell>
        <mxCell id="QaTXq2u6zS-n5LZm85QT-3" value="preguntas&lt;br&gt;descontar monto&lt;br&gt;post de agregar clientes&lt;br&gt;delete clientes&amp;nbsp;&lt;br&gt;&amp;nbsp;login&lt;br&gt;editar clientes (formulario)&lt;br&gt;combinar paginas&lt;br&gt;login como pagina principal&lt;br&gt;especificar login de admin o clientes&lt;br&gt;" style="rounded=0;whiteSpace=wrap;html=1;align=center;" vertex="1" parent="1">
          <mxGeometry x="800" y="620" width="280" height="340" as="geometry" />
        </mxCell>
      </root>
    </mxGraphModel>
  </diagram>
</mxfile>
